<svg width="512" height="512" viewBox="0 0 512 512" fill="none" xmlns="http://www.w3.org/2000/svg">
  <path d="M459.94 256C459.94 368.35 368.35 459.94 256 459.94C143.65 459.94 52.06 368.35 52.06 256C52.06 143.65 143.65 52.06 256 52.06C368.35 52.06 459.94 143.65 459.94 256Z" fill="#0052FF"/>
  <path fill-rule="evenodd" clip-rule="evenodd" d="M256 345.09C305.82 345.09 346.18 304.73 346.18 254.91C346.18 205.09 305.82 164.73 256 164.73C206.18 164.73 165.82 205.09 165.82 254.91C165.82 304.73 206.18 345.09 256 345.09ZM283.64 230.18C290 236.55 290 246.91 283.64 253.27L257.09 279.82C250.73 286.18 240.36 286.18 234 279.82L228.36 274.18C222 267.82 222 257.45 228.36 251.09L254.91 224.55C261.27 218.18 271.64 218.18 278 224.55L283.64 230.18Z" fill="white"/>
</svg>