<svg xmlns="http://www.w3.org/2000/svg" viewBox="0 0 370 140" fill="none">
  <path d="M75.6 108.4H60.9V14.8h14.7v93.6zM115.5 108.4h-15.2V14.8h15.2v93.6zM43.4 41.5H28.1v67h15.3v-67zM22.4 41.5H7.1v67h15.3v-67zM200.5 60.5c-4.4 0-8.2-1.4-11.3-4.3-3.1-2.9-4.7-6.4-4.7-10.7s1.6-7.8 4.7-10.7c3.1-2.9 6.9-4.3 11.3-4.3s8.2 1.4 11.3 4.3c3.1 2.9 4.7 6.4 4.7 10.7s-1.6 7.8-4.7 10.7c-3.1 2.9-6.9 4.3-11.3 4.3z" fill="#111111"/>
  <path d="M165.2 108.4h-15.3V14.8h15.3v93.6zM201.4 108.4h-15.3V41.5h15.3v66.9z" fill="#00B8A9"/>
  <path d="M320.7 84.9c5.9 0 11.1-2.1 15.5-6.3 4.4-4.2 6.6-9.3 6.6-15.3s-2.2-11.1-6.6-15.3c-4.4-4.2-9.6-6.3-15.5-6.3-5.9 0-11.1 2.1-15.5 6.3-4.4 4.2-6.6 9.3-6.6 15.3s2.2 11.1 6.6 15.3c4.4 4.2 9.6 6.3 15.5 6.3zM290.4 108.4h15.3V94c4.4 10.1 13.5 15.1 27.3 15.1 10.4 0 19.1-3.7 26.3-11.2 7.1-7.5 10.7-16.5 10.7-27.1 0-10.6-3.6-19.7-10.7-27.1-7.1-7.5-15.9-11.2-26.3-11.2-13.8 0-23 5-27.3 15.1V41.5h-15.3v66.9z" fill="#111111"/>
  <path d="M262.3 41.5c-12.2 0-21.7 3.7-28.5 11.2-6.8 7.5-10.2 16.5-10.2 27.1 0 10.6 3.4 19.7 10.2 27.1 6.8 7.5 16.3 11.2 28.5 11.2 14.6 0 25.6-5.9 32.9-17.8l-12.8-7.4c-4.4 7.2-11 10.8-19.9 10.8-5.9 0-10.8-1.7-14.7-5.1-3.9-3.4-6.1-7.7-6.6-13h57v-5.9c0-11.3-3.2-20.4-9.5-27.3-6.3-7-15.2-10.9-26.4-10.9zM240 60.5h41.4c-.6-5.9-2.8-10.5-6.6-13.8-3.8-3.3-8.7-4.9-14.7-4.9-6 0-10.9 1.6-14.7 4.9-3.8 3.3-5.7 7.9-5.4 13.8z" fill="#00B8A9"/>
</svg>