<svg width="2000" height="2000" viewBox="0 0 2000 2000" fill="none" xmlns="http://www.w3.org/2000/svg">
  <circle cx="1000" cy="1000" r="1000" fill="#2775CA"/>
  <path d="M1275.47 977.032C1275.47 833.021 1167.45 827.441 1059.85 817.941C977.472 810.701 936.262 799.541 936.262 759.991C936.262 720.441 971.892 694.441 1045.85 694.441C1116.05 694.441 1151.68 715.091 1161.87 770.171C1163.78 779.671 1171.67 786.911 1181.19 786.911H1246.18C1258.64 786.911 1268.23 776.731 1266.33 764.601C1250.57 661.141 1175.93 611.551 1070.09 611.551C946.453 611.551 850.118 674.471 850.118 763.921C850.118 905.161 958.137 913.321 1065.74 922.821C1147.97 930.061 1189.33 940.541 1189.33 983.591C1189.33 1029.45 1143.29 1061.21 1065.74 1061.21C979.376 1061.21 938.167 1031.81 929.667 980.551C928.097 970.371 919.867 962.791 909.657 962.791H843.187C830.727 962.791 821.137 973.311 823.037 985.441C838.628 1096.21 927.763 1144.77 1065.74 1144.77C1193.74 1144.77 1275.47 1080.16 1275.47 977.032Z" fill="white"/>
  <path d="M787.187 1144.1H720.717C709.557 1144.1 700.647 1135.19 700.647 1124.03V761.88C700.647 750.72 709.557 741.81 720.717 741.81H787.187C798.347 741.81 807.257 750.72 807.257 761.88V1124.03C807.257 1135.19 798.347 1144.1 787.187 1144.1Z" fill="white"/>
  <path d="M1349.07 1144.1H1282.59C1271.43 1144.1 1262.52 1135.19 1262.52 1124.03V761.88C1262.52 750.72 1271.43 741.81 1282.59 741.81H1349.07C1360.23 741.81 1369.13 750.72 1369.13 761.88V1124.03C1369.13 1135.19 1360.23 1144.1 1349.07 1144.1Z" fill="white"/>
  <path d="M1175.59 1235.67C1108.81 1274.54 1033.53 1294.95 953.352 1294.95C873.172 1294.95 797.892 1274.54 731.112 1235.67C664.332 1196.8 609.592 1142.06 570.722 1075.28C565.312 1065.77 552.682 1061.9 542.142 1066.49L489.882 1094.01C478.722 1099.07 475.002 1113.38 481.712 1123.9C529.512 1203.74 597.882 1272.11 677.722 1319.91C757.562 1367.71 849.722 1393.71 945.192 1393.71C1040.51 1393.71 1132.66 1367.71 1212.51 1319.91C1292.35 1272.11 1360.72 1203.74 1408.52 1123.9C1415.23 1113.38 1411.51 1099.07 1400.35 1094.01L1348.09 1066.49C1337.55 1061.9 1324.92 1065.77 1319.51 1075.28C1280.64 1142.06 1225.9 1196.8 1175.59 1235.67Z" fill="white"/>
  <path d="M1408.52 876.102C1361.05 796.262 1292.69 727.892 1212.85 680.092C1133.01 632.292 1040.85 606.292 945.532 606.292C850.212 606.292 758.062 632.292 678.212 680.092C598.372 727.892 530.002 796.262 482.202 876.102C475.492 886.622 479.212 900.932 490.372 905.992L542.632 933.512C553.172 938.102 565.802 934.232 571.212 924.722C610.082 857.942 664.822 803.202 731.602 764.332C798.382 725.462 873.662 705.052 953.842 705.052C1034.02 705.052 1109.3 725.462 1176.08 764.332C1242.86 803.202 1297.6 857.942 1336.47 924.722C1341.88 934.232 1354.51 938.102 1365.05 933.512L1417.31 905.992C1428.47 900.932 1432.19 886.622 1408.52 876.102Z" fill="white"/>
</svg>